<?xml version="1.0" encoding="UTF-8"?>
<svg id="Ebene_1" data-name="Ebene 1" xmlns="http://www.w3.org/2000/svg" viewBox="0 0 631.12 525.61">
  <defs>
    <style>
      .cls-1 {
        font-family: ArialMT, Arial;
        font-size: 64.35px;
      }

      .cls-1, .cls-2 {
        stroke-miterlimit: 10;
      }

      .cls-1, .cls-2, .cls-3, .cls-4 {
        stroke: #000;
      }

      .cls-1, .cls-5 {
        isolation: isolate;
      }

      .cls-3 {
        stroke-width: 14.09px;
      }

      .cls-3, .cls-4 {
        fill: none;
        stroke-linecap: round;
        stroke-linejoin: round;
      }

      .cls-4 {
        stroke-width: 16.09px;
      }
    </style>
  </defs>
  <path class="cls-3" d="M390.75,337.38l63.11-152.04h-35.63c-89.52,0-163.54,66.28-175.66,152.44"/>
  <polyline class="cls-3" points="296.85 479.84 315.56 518.57 334.27 479.84"/>
  <path class="cls-3" d="M315.51,218.09c-28.99-20.63-64.43-32.75-102.72-32.75h-35.52l63.11,152.05"/>
  <g>
    <path class="cls-3" d="M443.54,185.35c4.14-8.91,6.45-18.86,6.45-29.35,0-25.44-13.66-47.64-34-59.83-5.96-50.2-48.63-89.13-100.43-89.13s-94.47,38.93-100.43,89.13c-20.34,12.19-34,34.38-34,59.83,0,10.49,2.31,20.43,6.45,29.35"/>
    <path class="cls-2" d="M412.44,102.26c-.1-.05-.61-.44-1.96-1.24-1.32-.79-3.28-1.91-5.73-3.13-4.86-2.47-11.66-5.33-18.75-7.2-3.53-.98-7.13-1.74-10.53-2.18-1.7-.3-3.35-.45-4.92-.54-1.57-.14-3.06-.26-4.43-.22-2.76-.08-5.05.03-6.65.2-1.61.11-2.53.18-2.53.18l-.31.02c-1.89.14-3.55-1.29-3.68-3.19-.13-1.76,1.09-3.31,2.79-3.63,0,0,1-.19,2.74-.53,1.75-.39,4.25-.81,7.3-1.07,1.52-.21,3.17-.28,4.92-.33,1.75-.09,3.61-.13,5.51-.04,3.83.06,7.9.43,11.93,1.06,8.09,1.16,15.95,3.43,21.73,5.56,2.9,1.05,5.28,2.06,6.96,2.82,1.66.74,2.8,1.36,2.71,1.3,3.36,1.96,4.5,6.27,2.54,9.63-1.96,3.36-6.27,4.49-9.64,2.54Z"/>
    <path class="cls-2" d="M222.18,96.32s-.08,1.15-.23,3.16c-.01.85-.03,1.88-.06,3.07-.01,1.17.12,2.66.17,4.21.21,1.55.29,3.27.63,5.05.28,1.79.63,3.68,1.13,5.6.4,1.95,1.1,3.88,1.71,5.88.75,1.94,1.45,3.95,2.4,5.82.83,1.96,1.96,3.71,2.96,5.53,1.2,1.64,2.22,3.46,3.56,4.87.63.74,1.26,1.47,1.87,2.19.69.64,1.36,1.27,2.01,1.87,1.25,1.31,2.7,2.18,3.94,3.15,1.22,1.01,2.57,1.52,3.66,2.21,1.09.69,2.14,1.07,3,1.41,1.72.7,2.7,1.1,2.7,1.1l.4.16c1.63.66,2.41,2.52,1.74,4.14-.62,1.51-2.28,2.29-3.82,1.86,0,0-1.19-.34-3.28-.93-1.05-.3-2.34-.63-3.72-1.29-1.37-.66-3.06-1.16-4.65-2.18-1.6-.98-3.47-1.9-5.13-3.28-.86-.66-1.75-1.33-2.66-2.02-.83-.77-1.67-1.57-2.53-2.38-1.8-1.56-3.23-3.52-4.88-5.37-1.42-2-2.99-3.98-4.2-6.15-1.36-2.11-2.43-4.34-3.53-6.54-.96-2.24-2-4.43-2.72-6.64-.81-2.18-1.47-4.34-2.01-6.41-.61-2.06-.94-4.06-1.37-5.89-.28-1.88-.6-3.53-.77-5.15-.14-1.6-.3-3.14-.34-4.18-.07-2.01-.1-3.16-.1-3.16-.13-3.89,2.93-7.15,6.82-7.28,3.89-.13,7.15,2.93,7.28,6.82.03.24.02.51,0,.76Z"/>
  </g>
  <g>
    <path class="cls-4" d="M158.2,316.88c3.58-16.07,7.14-32.15,10.71-48.22-37.84-13.28-74.78-31.78-110.16-55.53,3.34,26.91,7.93,53.97,13.81,81.06-20.48,14.11-42.02,26.92-64.52,38.27h0c22.91,15.37,46.36,28.92,70.22,40.62"/>
    <path class="cls-4" d="M472.92,316.88c-3.58-16.07-7.14-32.15-10.71-48.22,37.83-13.28,74.77-31.78,110.16-55.53-3.34,26.91-7.94,53.97-13.81,81.06,20.48,14.11,42.02,26.92,64.52,38.27h0c-22.89,15.37-46.34,28.91-70.19,40.6"/>
    <path class="cls-4" d="M63.26,421.34c162.16,79.54,342.45,79.53,504.61-.01-13.21-42.55-26.43-85.11-39.64-127.65-136.68,67.04-288.65,67.04-425.34,0-13.21,42.57-26.42,85.1-39.63,127.66h0Z"/>
    <g class="cls-5">
      <text class="cls-1" transform="translate(63.23 352.74) rotate(25.3)"><tspan x="0" y="0"> </tspan></text>
    </g>
  </g>
  <g>
    <path d="M138.98,412.38c-4.7,6.28-16.44,2.54-21.98-.66-14.63-8.62-17.21-28-10.16-42.32,7.1-14.46,23.84-25.82,40.03-18.56,5.35,2.4,11.71,6.88,9.4,13.49-1.06,2.85-3.52,5.09-6.52,5.52-3,.42-5.21-1.05-7.57-2.75-9.51-7.12-20.55,5.71-22.09,14.63-1.31,7.62,1.63,17.81,11.05,17.35.03-.07.1-.04.1-.04.07.03.1-.04.17-.02,7.15-.25,12.25,7.17,7.58,13.38Z"/>
    <path d="M182.97,412.45c2.03,2.68,4.06,5.36,6.08,8.04,1.4,1.8,2.57,3.3,2.52,5.49-.09,3.52-2.9,6.61-6.73,7.07-5.38.66-8.28-3.44-11.01-7.01-2.15-2.79-4.31-5.58-6.46-8.38-1.27-1.69-2.79-3.36-4.04-5.12-.54,2.85-1.14,5.91-2.37,8.41-.71,1.46-1.9,2.63-3.57,3.28-3.09,1.21-7.11.35-9.66-1.84-3.42-3.06-2.37-6.63-1.45-10.32,1.89-7.52,3.78-15.04,5.76-22.61,1-3.98,2.01-7.96,3.01-11.94.84-3.08,1.32-6.57,2.52-9.55,1.24-3.13,4.47-4.85,8.18-4.31,2.21.29,3.51,1.58,4.99,2.22.69.35,3.52.09,4.75.19,1.31.12,2.59.31,3.93.6,6.21,1.22,12.13,4.33,16.11,9.11,6.66,7.96,6.94,19.06,1.76,27.1-3.36,4.83-8.3,8.22-14.34,9.57ZM179.29,381.99c-2.84-.85-5.18-.94-7.95-.9-1.26,4.93-2.55,9.94-3.81,14.87.15.04.35.17.49.21,0,0,.07.02.15.04,4.96,1.74,10.13,2.99,14.1-.57,2.84-3.79,3.43-11.75-2.98-13.65Z"/>
    <path d="M247.42,437.53c-4.65,6.62-14.11,1.42-20.67.09-4.54-.99-9.2-1.69-13.78-1.46-2.8.15-5.25.51-7.76-1.07-5.5-3.54-3.64-11.4-3.28-16.34.7-8.36,2.09-16.68,4.07-24.83,1.05-3.99,2.17-7.88,3.43-11.76.81-2.56,1.3-5.49,3.88-7.06,2.75-1.7,5.67-1.21,8.77-.85,3.86.41,7.72.83,11.61,1.55,4.49.83,9.36,1.64,13.63,3.28,2.02.8,3.97,2.05,4.98,3.84,2.41,4.03-.2,9.06-4.74,10.38-3.41,1.05-7.18-.82-10.52-1.6-4.24-.94-8.43-1.64-12.66-2.19-.69,2.27-1.38,4.55-1.99,6.83,6.65.8,14.64,3.68,12.25,11.06-.91,2.7-3.36,4.45-6.35,4.8-3.06.34-5.83-1.05-8.85-1.02-.49,3.39-.83,6.8-1.09,10.22,7.9.7,15.68,2.54,23.34,4.67h.08c.07.03.15.04.15.04,5.33,1.74,8.81,6.79,5.49,11.4Z"/>
    <path d="M300.3,394.23c5.16,10.11,4.88,21.75,3.97,32.58-.2,2.88-.48,5.76-.76,8.63-.14,2.05,0,4.42-.82,6.34-.93,2.45-3.41,4.03-6.25,4.44-2.69.34-5.69-.4-7.62-2.21-2.79-2.56-2.24-6.1-1.85-9.42-4.87-.11-9.73-.3-14.6-.41-.06,2.97-.05,6.09-2.63,8.2-1.78,1.48-4.41,1.98-6.9,1.73-8.53-1.13-7.06-9.03-6.9-14.66.48-15.51-.15-41.31,21.07-46.22,9.88-1.75,19.09,2.71,23.31,11ZM287.93,419.72c.15-4.26.07-8.61-.78-12.86-.43-2.54-.9-5.7-2.65-7.88-1.4-1.7-3.25-1.52-5.21-.67-4.56,4.18-5.4,10.75-6.02,16.34-.19,1.59-.29,3.1-.4,4.62,5.02.12,10.04.32,15.06.45Z"/>
    <path d="M377.56,387.86c.23,11.78.76,23.63,1.45,35.46.23,2.96.38,5.84.6,8.8.18,1.97.59,4.08.16,6-.5,2.16-2.16,3.92-4.4,4.79-4.92,1.93-10.82-.36-11.91-5.17-1.11-5.27-.87-11.07-1.15-16.45-.34-5.08-.6-10.24-.79-15.33-3.44,4.06-6.57,8.33-9.15,12.95-2.03,3.53-3.68,6.81-8.69,7.07-4.48.23-6.75-2.47-8.67-5.72-2.6-4.58-5.85-8.68-9.55-12.52.29,7.14.66,14.27,1.18,21.4.29,4.25,2.37,10.61-1.33,14.15-4.2,4.1-12.42,2.69-14.29-2.61-.89-2.47-.66-5.52-.8-8.1-.25-3.41-.5-6.75-.68-10.16-.44-7.13-.74-14.34-.95-21.49-.17-3.34-.5-6.82-.3-10.18.07-1.6.37-3.14,1.44-4.49,2-2.46,5.68-3.56,8.9-3.04,4.61.83,8.71,5.03,11.89,7.76,4.69,3.94,8.87,8.29,12.54,12.9,2.77-3.8,5.7-7.45,8.79-11.03,3.31-3.67,7.2-7.9,11.88-10.2,5.78-2.96,13.24-1.44,13.81,5.22Z"/>
    <path d="M435.14,429.55c-2.2,7.79-12.84,6.01-19.47,6.93-4.61.57-9.24,1.45-13.48,3.19-2.59,1.07-4.78,2.22-7.67,1.56-6.36-1.52-7.21-9.55-8.5-14.33-2.1-8.12-3.55-16.43-4.38-24.77-.33-4.11-.57-8.15-.66-12.23-.08-2.69-.59-5.61,1.32-7.94,2.03-2.51,4.95-3.02,8-3.7,3.78-.89,7.56-1.78,11.47-2.38,4.5-.71,9.37-1.55,13.95-1.42,2.17.08,4.43.62,5.97,1.97,3.61,3,2.81,8.61-1.03,11.36-2.87,2.12-7.05,1.61-10.46,1.97-4.31.52-8.5,1.24-12.67,2.12.1,2.37.21,4.75.39,7.11,6.54-1.44,15.03-1.38,15.22,6.38.03,2.85-1.7,5.31-4.4,6.63-2.78,1.33-5.85.94-8.68,1.97.66,3.36,1.47,6.69,2.35,10,7.68-1.95,15.64-2.79,23.57-3.32h.08c.07-.03.15-.04.15-.04,5.61-.13,10.56,3.49,8.96,8.93Z"/>
    <path d="M474.01,406.63c3.11,1.27,6.22,2.54,9.33,3.81,2.12.83,3.89,1.53,4.97,3.44,1.71,3.08.87,7.17-2.19,9.51-4.29,3.31-8.88,1.26-13.05-.42-3.28-1.3-6.55-2.61-9.83-3.91-1.96-.8-4.11-1.47-6.09-2.34.99,2.72,2.04,5.67,2.25,8.45.13,1.62-.29,3.23-1.4,4.64-2.04,2.61-5.94,3.92-9.25,3.34-4.5-.89-5.42-4.5-6.5-8.14-2.21-7.43-4.41-14.87-6.57-22.39-1.16-3.94-2.33-7.87-3.49-11.81-.85-3.08-2.22-6.33-2.7-9.5-.52-3.33,1.38-6.45,4.84-7.88,2.04-.88,3.83-.42,5.42-.63.77-.06,3.08-1.72,4.19-2.26,1.18-.56,2.39-1.05,3.69-1.49,5.96-2.12,12.65-2.46,18.5-.37,9.78,3.45,15.69,12.86,15.33,22.42-.43,5.87-2.96,11.3-7.46,15.54ZM455.32,382.3c-2.88.71-4.93,1.83-7.3,3.27,1.43,4.89,2.87,9.85,4.3,14.74.15-.04.39-.03.53-.07,0,0,.07-.02.15-.04,5.16-1.03,10.25-2.59,11.84-7.68.51-4.71-3.03-11.86-9.52-10.23Z"/>
    <path d="M520.76,354.67c.19,2.28-.52,4.73-.81,7.02-.43,3-.89,5.92-1.32,8.92-1.74,12.39-3.41,24.76-4.26,37.14-.22,3.57-.8,7.26-4.58,9.31-3.02,1.68-6.71,1.35-9.27-.54-3.74-2.67-2.56-7.16-2.21-11.25.42-5.66,1.03-11.24,1.69-16.91-7.46-2.43-14.32-6.3-19.61-11.63-3.35-3.38-7.39-7.72-4.21-12.71,1.99-3.17,6.39-5.28,10.06-4.12,2.65.8,3.7,3.01,5.35,4.83,2.82,3.25,6.48,5.71,10.51,7.62.44-3.41.91-6.74,1.43-10.17.37-2.73.38-5.98,1.33-8.67,1.35-3.58,5.33-5.53,9.11-5.39.14-.05.24,0,.41.01.07-.03.24,0,.34.04,3.37.78,5.78,3.13,6.05,6.51Z"/>
  </g>
</svg>